<svg xmlns="http://www.w3.org/2000/svg" width="262" height="262" viewBox="0 0 262 262" version="1.1"><path d="M 138.604 21.998 C 107.517 25.897, 74.472 38.177, 54.281 53.333 C 51.960 55.075, 50.048 56.979, 50.031 57.564 C 50.014 58.149, 52.093 60.174, 54.650 62.064 C 60.576 66.442, 67.278 75.454, 69.981 82.678 C 79.058 106.940, 66.869 143.413, 33.946 190.500 C 21.513 208.281, 19.460 213.886, 24.533 216.197 C 26.671 217.171, 28.500 216.844, 36.283 214.093 C 53.171 208.125, 59.025 206.690, 61.637 207.881 C 64.784 209.315, 64.738 213.275, 61.487 220.625 C 57.747 229.083, 57.305 233.305, 59.890 235.890 C 61.050 237.050, 62.911 238, 64.025 238 C 68.081 238, 77.220 234.012, 88.730 227.220 C 104.076 218.164, 106.422 217, 109.334 217 C 112.771 217, 113.249 219.990, 111.250 228.969 C 109.007 239.042, 108.971 246.931, 111.162 248.323 C 115.277 250.937, 126.479 244.204, 153.636 222.791 C 171.958 208.344, 176.997 205, 180.445 205 C 184.052 205, 185 207.691, 185 217.934 C 185 223.733, 185.387 227, 186.075 227 C 188.471 227, 201.888 217.319, 208.095 211.111 C 224.757 194.450, 224.949 178.378, 208.554 172.702 L 205.022 171.479 212.221 165.490 C 226.398 153.693, 237.850 136.959, 243.009 120.500 C 246.029 110.864, 246.777 93.244, 244.600 83 C 242.697 74.043, 236.962 61.772, 230.797 53.463 C 220.082 39.021, 201.672 27.960, 180.743 23.387 C 172.275 21.537, 148.521 20.754, 138.604 21.998 M 149.831 52.023 C 124.741 56.257, 104.546 72.004, 99.395 91.350 C 95.188 107.152, 101.731 124.572, 116.204 136.099 C 126.461 144.268, 144.778 151, 156.747 151 C 159.416 151, 162.140 151.540, 162.800 152.200 C 163.570 152.970, 164 156.911, 164 163.200 C 164 168.829, 164.411 173, 164.965 173 C 165.496 173, 170.108 170.475, 175.215 167.388 C 203.136 150.514, 222.061 131.038, 226.510 114.601 C 229.237 104.525, 228.243 91.967, 224.042 83.434 C 218.455 72.085, 206.281 61.651, 192.634 56.514 C 179.479 51.563, 162.881 49.821, 149.831 52.023 M 166.030 90.279 C 162.661 91.984, 159 97.670, 159 101.198 C 159 108.434, 164.754 114, 172.235 114 C 176.525 114, 177.651 113.549, 180.521 110.679 C 184.639 106.561, 185.728 101.678, 183.641 96.684 C 180.944 90.227, 172.326 87.094, 166.030 90.279 M 205.025 92.727 C 202.700 93.913, 201.090 95.721, 200.163 98.188 C 198.920 101.492, 198.970 102.270, 200.638 105.669 C 204.516 113.569, 215.248 113.438, 218.585 105.450 C 222.283 96.601, 213.529 88.388, 205.025 92.727 M 116.707 166.533 C 108.376 169.590, 104 174.716, 104 181.416 C 104 188.259, 113.020 195.138, 123.883 196.579 C 128.893 197.243, 129 197.328, 129 200.629 C 129 202.483, 129.356 204, 129.792 204 C 131.639 204, 147.026 193.758, 149.379 190.962 C 160.014 178.323, 148.977 164.878, 128.124 165.070 C 123.931 165.109, 118.793 165.767, 116.707 166.533" stroke="none" fill="#ffffff" fill-rule="evenodd"/><path d="" stroke="none" fill="#000000" fill-rule="evenodd"/><path d="" stroke="none" fill="#fffcfc" fill-rule="evenodd"/><path d="" stroke="none" fill="#fcfcfc" fill-rule="evenodd"/></svg>